<svg width="19" height="26" viewBox="0 0 19 26" fill="none" xmlns="http://www.w3.org/2000/svg">
<path fill-rule="evenodd" clip-rule="evenodd" d="M13.2101 1.1647C13.3156 1.27018 13.3748 1.41323 13.3748 1.56239C13.3748 1.71154 13.3156 1.85459 13.2101 1.96008L11.9203 3.24991H15.0625C16.1067 3.24991 17.1083 3.66476 17.8467 4.40319C18.5852 5.14161 19 6.14315 19 7.18744V8.31246C19 8.46164 18.9407 8.60474 18.8352 8.71021C18.7298 8.81573 18.5867 8.87497 18.4375 8.87497C18.2883 8.87497 18.1452 8.81573 18.0397 8.71021C17.9342 8.60474 17.875 8.46164 17.875 8.31246V7.18744C17.875 6.4415 17.5787 5.72616 17.0512 5.1987C16.5237 4.67124 15.8084 4.37492 15.0625 4.37492H11.9203L13.2101 5.66474C13.2638 5.71666 13.3067 5.7787 13.3362 5.84733C13.3656 5.91595 13.3812 5.98981 13.3818 6.06445C13.3825 6.13916 13.3682 6.21324 13.3399 6.28237C13.3117 6.3515 13.2699 6.41428 13.2171 6.4671C13.1643 6.51992 13.1015 6.56171 13.0323 6.59C12.9632 6.61824 12.8891 6.63247 12.8144 6.63186C12.7398 6.63118 12.6659 6.61566 12.5973 6.58618C12.5287 6.5567 12.4666 6.51384 12.4147 6.46012L10.1647 4.21011C10.0592 4.10462 10 3.96157 10 3.81242C10 3.66326 10.0592 3.52021 10.1647 3.41473L12.4147 1.1647C12.5202 1.05924 12.6633 1 12.8124 1C12.9616 1 13.1046 1.05924 13.2101 1.1647V1.1647Z" fill="black"/>
<rect x="1" y="8" width="14" height="17" rx="1" stroke="black" stroke-width="2"/>
</svg>
