<svg width="16" height="16" viewBox="0 0 16 16" fill="none" xmlns="http://www.w3.org/2000/svg">
<path d="M7.46946 12.0303C7.53911 12.1 7.62179 12.1552 7.71278 12.1929C7.80378 12.2306 7.90131 12.25 7.9998 12.25C8.0983 12.25 8.19583 12.2306 8.28683 12.1929C8.37782 12.1552 8.4605 12.1 8.53015 12.0303L11.3586 9.20191C11.4992 9.06125 11.5782 8.87049 11.5782 8.67158C11.5782 8.47267 11.4992 8.2819 11.3586 8.14125C11.2179 8.0006 11.0271 7.92158 10.8282 7.92158C10.6293 7.92158 10.4385 8.0006 10.2979 8.14125L8.7498 9.68934V1.5C8.7498 1.30109 8.67079 1.11032 8.53013 0.96967C8.38948 0.829018 8.19872 0.75 7.9998 0.75C7.80089 0.75 7.61013 0.829018 7.46947 0.96967C7.32882 1.11032 7.2498 1.30109 7.2498 1.5V9.68934L5.70171 8.14125C5.56106 8.0006 5.37029 7.92158 5.17138 7.92158C4.97247 7.92158 4.78171 8.0006 4.64105 8.14125C4.5004 8.2819 4.42139 8.47267 4.42139 8.67158C4.42139 8.87049 4.5004 9.06125 4.64105 9.20191L7.46946 12.0303Z" fill="#A6BCCC"/>
<path d="M14.5 7.25C14.3011 7.25 14.1103 7.32902 13.9697 7.46967C13.829 7.61032 13.75 7.80109 13.75 8V13.75H2.25V8C2.25 7.80109 2.17098 7.61032 2.03033 7.46967C1.88968 7.32902 1.69891 7.25 1.5 7.25C1.30109 7.25 1.11032 7.32902 0.96967 7.46967C0.829018 7.61032 0.75 7.80109 0.75 8V14C0.75 14.3315 0.881696 14.6495 1.11612 14.8839C1.35054 15.1183 1.66848 15.25 2 15.25H14C14.3315 15.25 14.6495 15.1183 14.8839 14.8839C15.1183 14.6495 15.25 14.3315 15.25 14V8C15.25 7.80109 15.171 7.61032 15.0303 7.46967C14.8897 7.32902 14.6989 7.25 14.5 7.25Z" fill="#A6BCCC"/>
</svg>
